<?xml version="1.0" encoding="utf-8"?>
<!DOCTYPE svg PUBLIC "-//W3C//DTD SVG 1.0//EN" "http://www.w3.org/TR/2001/REC-SVG-20010904/DTD/svg10.dtd">
<svg color-interpolation="auto" color-rendering="auto" fill="black" fill-opacity="1" font-family="'Dialog'" font-size="12px" font-style="normal" font-weight="normal" height="840" image-rendering="auto" shape-rendering="auto" stroke="black" stroke-dasharray="none" stroke-dashoffset="0" stroke-linecap="square" stroke-linejoin="miter" stroke-miterlimit="10" stroke-opacity="1" stroke-width="1" text-rendering="auto" viewBox="190 100 1030 840" width="1030" xmlns="http://www.w3.org/2000/svg" xmlns:xlink="http://www.w3.org/1999/xlink"><!--Generated by the Batik Graphics2D SVG Generator--><defs id="genericDefs"/><g><defs id="defs1"><clipPath clipPathUnits="userSpaceOnUse" id="clipPath1"><path d="M0 0 L2147483647 0 L2147483647 2147483647 L0 2147483647 L0 0 Z"/></clipPath><clipPath clipPathUnits="userSpaceOnUse" id="clipPath2"><path d="M0 0 L0 30 L100 30 L100 0 Z"/></clipPath><clipPath clipPathUnits="userSpaceOnUse" id="clipPath3"><path d="M0 0 L0 340 L970 340 L970 0 Z"/></clipPath><clipPath clipPathUnits="userSpaceOnUse" id="clipPath4"><path d="M0 0 L0 90 L190 90 L190 0 Z"/></clipPath><clipPath clipPathUnits="userSpaceOnUse" id="clipPath5"><path d="M0 0 L0 300 L960 300 L960 0 Z"/></clipPath><clipPath clipPathUnits="userSpaceOnUse" id="clipPath6"><path d="M0 0 L0 70 L140 70 L140 0 Z"/></clipPath><clipPath clipPathUnits="userSpaceOnUse" id="clipPath7"><path d="M0 0 L0 190 L600 190 L600 0 Z"/></clipPath><clipPath clipPathUnits="userSpaceOnUse" id="clipPath8"><path d="M0 0 L0 150 L210 150 L210 0 Z"/></clipPath><clipPath clipPathUnits="userSpaceOnUse" id="clipPath9"><path d="M0 0 L0 300 L900 300 L900 0 Z"/></clipPath><clipPath clipPathUnits="userSpaceOnUse" id="clipPath10"><path d="M0 0 L0 30 L140 30 L140 0 Z"/></clipPath><clipPath clipPathUnits="userSpaceOnUse" id="clipPath11"><path d="M0 0 L0 30 L150 30 L150 0 Z"/></clipPath><clipPath clipPathUnits="userSpaceOnUse" id="clipPath12"><path d="M0 0 L0 70 L170 70 L170 0 Z"/></clipPath><clipPath clipPathUnits="userSpaceOnUse" id="clipPath13"><path d="M0 0 L0 120 L280 120 L280 0 Z"/></clipPath><clipPath clipPathUnits="userSpaceOnUse" id="clipPath14"><path d="M0 0 L0 40 L100 40 L100 0 Z"/></clipPath><clipPath clipPathUnits="userSpaceOnUse" id="clipPath15"><path d="M0 0 L0 40 L110 40 L110 0 Z"/></clipPath><clipPath clipPathUnits="userSpaceOnUse" id="clipPath16"><path d="M0 0 L0 140 L250 140 L250 0 Z"/></clipPath><clipPath clipPathUnits="userSpaceOnUse" id="clipPath17"><path d="M0 0 L0 120 L170 120 L170 0 Z"/></clipPath><clipPath clipPathUnits="userSpaceOnUse" id="clipPath18"><path d="M0 0 L0 150 L270 150 L270 0 Z"/></clipPath><clipPath clipPathUnits="userSpaceOnUse" id="clipPath19"><path d="M0 0 L0 290 L370 290 L370 0 Z"/></clipPath><clipPath clipPathUnits="userSpaceOnUse" id="clipPath20"><path d="M0 0 L0 320 L100 320 L100 0 Z"/></clipPath><clipPath clipPathUnits="userSpaceOnUse" id="clipPath21"><path d="M0 0 L0 320 L180 320 L180 0 Z"/></clipPath><clipPath clipPathUnits="userSpaceOnUse" id="clipPath22"><path d="M0 0 L0 50 L190 50 L190 0 Z"/></clipPath><clipPath clipPathUnits="userSpaceOnUse" id="clipPath23"><path d="M0 0 L0 70 L130 70 L130 0 Z"/></clipPath><clipPath clipPathUnits="userSpaceOnUse" id="clipPath24"><path d="M0 0 L0 60 L30 60 L30 0 Z"/></clipPath><clipPath clipPathUnits="userSpaceOnUse" id="clipPath25"><path d="M0 0 L0 110 L430 110 L430 0 Z"/></clipPath><clipPath clipPathUnits="userSpaceOnUse" id="clipPath26"><path d="M0 0 L0 40 L180 40 L180 0 Z"/></clipPath><clipPath clipPathUnits="userSpaceOnUse" id="clipPath27"><path d="M0 0 L0 200 L30 200 L30 0 Z"/></clipPath><clipPath clipPathUnits="userSpaceOnUse" id="clipPath28"><path d="M0 0 L0 180 L30 180 L30 0 Z"/></clipPath><clipPath clipPathUnits="userSpaceOnUse" id="clipPath29"><path d="M0 0 L0 50 L30 50 L30 0 Z"/></clipPath></defs><g fill="rgb(255,255,255)" fill-opacity="0" stroke="rgb(255,255,255)" stroke-opacity="0" transform="translate(680,160)"><rect clip-path="url(#clipPath2)" height="28.5" stroke="none" width="98.5" x="0.5" y="0.5"/></g><g transform="translate(680,160)"><rect clip-path="url(#clipPath2)" fill="none" height="28.5" width="98.5" x="0.5" y="0.5"/><text clip-path="url(#clipPath2)" font-family="sans-serif" font-size="10px" stroke="none" x="23" xml:space="preserve" y="14.1553">TimeClient</text></g><g fill="rgb(255,255,255)" fill-opacity="0" stroke="rgb(255,255,255)" stroke-opacity="0" transform="translate(210,260)"><rect clip-path="url(#clipPath3)" height="338.5" stroke="none" width="968.5" x="0.5" y="0.5"/></g><g transform="translate(210,260)"><rect clip-path="url(#clipPath3)" fill="none" height="338.5" width="968.5" x="0.5" y="0.5"/></g><g fill="rgb(255,255,255)" fill-opacity="0" stroke="rgb(255,255,255)" stroke-opacity="0" transform="translate(210,260)"><rect clip-path="url(#clipPath3)" height="4" stroke="none" width="8" x="947.9" y="8.5"/></g><g transform="translate(210,260)"><rect clip-path="url(#clipPath3)" fill="none" height="4" width="8" x="947.9" y="8.5"/></g><g fill="rgb(255,255,255)" fill-opacity="0" stroke="rgb(255,255,255)" stroke-opacity="0" transform="translate(210,260)"><rect clip-path="url(#clipPath3)" height="4" stroke="none" width="8" x="947.9" y="15.5"/></g><g transform="translate(210,260)"><rect clip-path="url(#clipPath3)" fill="none" height="4" width="8" x="947.9" y="15.5"/><path clip-path="url(#clipPath3)" d="M951.9 12.5 L951.9 15.5" fill="none"/><path clip-path="url(#clipPath3)" d="M951.9 8.5 L951.9 5.5 L965.5 5.5 L965.5 22.5 L951.9 22.5 L951.9 19.5" fill="none"/><text clip-path="url(#clipPath3)" font-family="sans-serif" font-size="10px" font-weight="bold" stroke="none" x="416" xml:space="preserve" y="22.1553">JMS Module simpletimeapi</text></g><g fill="rgb(0,255,255)" fill-opacity="0.4902" stroke="rgb(0,255,255)" stroke-opacity="0.4902" transform="translate(670,120)"><rect clip-path="url(#clipPath4)" height="88.5" stroke="none" width="188.5" x="0.5" y="0.5"/></g><g transform="translate(670,120)"><rect clip-path="url(#clipPath4)" fill="none" height="88.5" width="188.5" x="0.5" y="0.5"/></g><g fill="rgb(255,255,255)" fill-opacity="0" stroke="rgb(255,255,255)" stroke-opacity="0" transform="translate(670,120)"><rect clip-path="url(#clipPath4)" height="4" stroke="none" width="8" x="167.9" y="8.5"/></g><g transform="translate(670,120)"><rect clip-path="url(#clipPath4)" fill="none" height="4" width="8" x="167.9" y="8.5"/></g><g fill="rgb(255,255,255)" fill-opacity="0" stroke="rgb(255,255,255)" stroke-opacity="0" transform="translate(670,120)"><rect clip-path="url(#clipPath4)" height="4" stroke="none" width="8" x="167.9" y="15.5"/></g><g transform="translate(670,120)"><rect clip-path="url(#clipPath4)" fill="none" height="4" width="8" x="167.9" y="15.5"/><path clip-path="url(#clipPath4)" d="M171.9 12.5 L171.9 15.5" fill="none"/><path clip-path="url(#clipPath4)" d="M171.9 8.5 L171.9 5.5 L185.5 5.5 L185.5 22.5 L171.9 22.5 L171.9 19.5" fill="none"/><text clip-path="url(#clipPath4)" font-family="sans-serif" font-size="10px" font-weight="bold" stroke="none" x="31" xml:space="preserve" y="22.1553">JMS Module teachertests</text></g><g fill="rgb(255,255,255)" fill-opacity="0" stroke="rgb(255,255,255)" stroke-opacity="0" transform="translate(240,620)"><rect clip-path="url(#clipPath5)" height="298.5" stroke="none" width="958.5" x="0.5" y="0.5"/></g><g transform="translate(240,620)"><rect clip-path="url(#clipPath5)" fill="none" height="298.5" width="958.5" x="0.5" y="0.5"/></g><g fill="rgb(255,255,255)" fill-opacity="0" stroke="rgb(255,255,255)" stroke-opacity="0" transform="translate(240,620)"><rect clip-path="url(#clipPath5)" height="4" stroke="none" width="8" x="937.9" y="8.5"/></g><g transform="translate(240,620)"><rect clip-path="url(#clipPath5)" fill="none" height="4" width="8" x="937.9" y="8.5"/></g><g fill="rgb(255,255,255)" fill-opacity="0" stroke="rgb(255,255,255)" stroke-opacity="0" transform="translate(240,620)"><rect clip-path="url(#clipPath5)" height="4" stroke="none" width="8" x="937.9" y="15.5"/></g><g transform="translate(240,620)"><rect clip-path="url(#clipPath5)" fill="none" height="4" width="8" x="937.9" y="15.5"/><path clip-path="url(#clipPath5)" d="M941.9 12.5 L941.9 15.5" fill="none"/><path clip-path="url(#clipPath5)" d="M941.9 8.5 L941.9 5.5 L955.5 5.5 L955.5 22.5 L941.9 22.5 L941.9 19.5" fill="none"/><text clip-path="url(#clipPath5)" font-family="sans-serif" font-size="10px" font-weight="bold" stroke="none" x="408" xml:space="preserve" y="22.1553">JMS Module simpletimeimpl</text></g><g fill="rgb(255,255,255)" fill-opacity="0" stroke="rgb(255,255,255)" stroke-opacity="0" transform="translate(390,820)"><path clip-path="url(#clipPath6)" d="M0.5 0.5 L128.5 0.5 L139 12.5 L139 69 L0.5 69 Z" stroke="none"/></g><g transform="translate(390,820)"><path clip-path="url(#clipPath6)" d="M0.5 0.5 L128.5 0.5 L139 12.5 L139 69 L0.5 69 Z" fill="none"/><path clip-path="url(#clipPath6)" d="M128.5 0.5 L128.5 12.5 L139 12.5" fill="none"/><text clip-path="url(#clipPath6)" font-family="sans-serif" font-size="10px" stroke="none" x="5" xml:space="preserve" y="14.1553">all implementing parts</text><text clip-path="url(#clipPath6)" font-family="sans-serif" font-size="10px" stroke="none" x="5" xml:space="preserve" y="26.3105">can stay encapsulated.</text></g><g fill="rgb(255,255,255)" fill-opacity="0" stroke="rgb(255,255,255)" stroke-opacity="0" transform="translate(560,650)"><path clip-path="url(#clipPath7)" d="M0.5 0.5 L240.5 0.5 L240.5 17.6553 L599 17.6553 L599 189 L0.5 189 Z" stroke="none"/></g><g transform="translate(560,650)"><path clip-path="url(#clipPath7)" d="M0.5 0.5 L240.5 0.5 L240.5 17.6553 L599 17.6553 L599 189 L0.5 189 Z" fill="none"/><path clip-path="url(#clipPath7)" d="M0.5 17.6553 L240.5 17.6553" fill="none"/><text clip-path="url(#clipPath7)" font-family="sans-serif" font-size="10px" stroke="none" x="5" xml:space="preserve" y="12.1553">simpletimeimpl</text></g><g fill="rgb(255,255,255)" fill-opacity="0" stroke="rgb(255,255,255)" stroke-opacity="0" transform="translate(330,650)"><path clip-path="url(#clipPath8)" d="M0.5 0.5 L84.5 0.5 L84.5 17.6553 L209 17.6553 L209 149 L0.5 149 Z" stroke="none"/></g><g transform="translate(330,650)"><path clip-path="url(#clipPath8)" d="M0.5 0.5 L84.5 0.5 L84.5 17.6553 L209 17.6553 L209 149 L0.5 149 Z" fill="none"/><path clip-path="url(#clipPath8)" d="M0.5 17.6553 L84.5 17.6553" fill="none"/><text clip-path="url(#clipPath8)" font-family="sans-serif" font-size="10px" stroke="none" x="5" xml:space="preserve" y="12.1553">simpletime</text></g><g fill="rgb(120,120,120)" fill-opacity="0.2" stroke="rgb(120,120,120)" stroke-opacity="0.2" transform="translate(240,270)"><path clip-path="url(#clipPath9)" d="M0.5 0.5 L360.5 0.5 L360.5 17.6553 L899 17.6553 L899 299 L0.5 299 Z" stroke="none"/></g><g transform="translate(240,270)"><path clip-path="url(#clipPath9)" d="M0.5 0.5 L360.5 0.5 L360.5 17.6553 L899 17.6553 L899 299 L0.5 299 Z" fill="none"/><path clip-path="url(#clipPath9)" d="M0.5 17.6553 L360.5 17.6553" fill="none"/><text clip-path="url(#clipPath9)" font-family="sans-serif" font-size="10px" stroke="none" x="5" xml:space="preserve" y="12.1553">simpletimeapi</text></g><g fill="rgb(0,255,0)" fill-opacity="0.2" stroke="rgb(0,255,0)" stroke-opacity="0.2" transform="translate(680,740)"><path clip-path="url(#clipPath10)" d="M0.5 0.5 L128.5 0.5 L139 12.5 L139 29 L0.5 29 Z" stroke="none"/></g><g transform="translate(680,740)"><path clip-path="url(#clipPath10)" d="M0.5 0.5 L128.5 0.5 L139 12.5 L139 29 L0.5 29 Z" fill="none"/><path clip-path="url(#clipPath10)" d="M128.5 0.5 L128.5 12.5 L139 12.5" fill="none"/><text clip-path="url(#clipPath10)" font-family="sans-serif" font-size="10px" stroke="none" x="5" xml:space="preserve" y="14.1553">Student Work</text></g><g fill="rgb(255,255,0)" fill-opacity="0.4902" stroke="rgb(255,255,0)" stroke-opacity="0.4902" transform="translate(920,710)"><rect clip-path="url(#clipPath10)" height="28.5" stroke="none" width="138.5" x="0.5" y="0.5"/></g><g transform="translate(920,710)"><rect clip-path="url(#clipPath10)" fill="none" height="28.5" width="138.5" x="0.5" y="0.5"/><text clip-path="url(#clipPath10)" font-family="sans-serif" font-size="10px" stroke="none" x="19" xml:space="preserve" y="14.1553">TimeImplementation</text></g><g fill="rgb(255,255,0)" fill-opacity="0.4902" stroke="rgb(255,255,0)" stroke-opacity="0.4902" transform="translate(670,680)"><rect clip-path="url(#clipPath11)" height="28.5" stroke="none" width="148.5" x="0.5" y="0.5"/></g><g transform="translate(670,680)"><rect clip-path="url(#clipPath11)" fill="none" height="28.5" width="148.5" x="0.5" y="0.5"/><text clip-path="url(#clipPath11)" font-family="sans-serif" font-size="10px" stroke="none" x="15" xml:space="preserve" y="14.1553">DurationImplementation</text></g><g fill="rgb(255,255,0)" fill-opacity="0.4902" stroke="rgb(255,255,0)" stroke-opacity="0.4902" transform="translate(350,680)"><rect clip-path="url(#clipPath12)" height="68.5" stroke="none" width="168.5" x="0.5" y="0.5"/></g><g transform="translate(350,680)"><rect clip-path="url(#clipPath12)" fill="none" height="68.5" width="168.5" x="0.5" y="0.5"/><text clip-path="url(#clipPath12)" font-family="sans-serif" font-size="10px" stroke="none" x="39" xml:space="preserve" y="14.1553">SimpleTimeFactory</text><path clip-path="url(#clipPath12)" d="M1 20.1553 L169 20.1553" fill="none"/><path clip-path="url(#clipPath12)" d="M1 25.1553 L169 25.1553" fill="none"/><text clip-path="url(#clipPath12)" font-family="sans-serif" font-size="10px" stroke="none" x="5" xml:space="preserve" y="36.3105"> Duration createTime(int l){</text><text clip-path="url(#clipPath12)" font-family="sans-serif" font-size="10px" stroke="none" x="5" xml:space="preserve" y="48.4658">    return new ApDuration(...)</text><text clip-path="url(#clipPath12)" font-family="sans-serif" font-size="10px" stroke="none" x="5" xml:space="preserve" y="60.6211"> }</text></g><g fill="rgb(255,255,255)" fill-opacity="0" stroke="rgb(255,255,255)" stroke-opacity="0" transform="translate(250,410)"><rect clip-path="url(#clipPath13)" height="118.5" stroke="none" width="278.5" x="0.5" y="0.5"/></g><g transform="translate(250,410)"><rect clip-path="url(#clipPath13)" fill="none" height="118.5" width="278.5" x="0.5" y="0.5"/><text clip-path="url(#clipPath13)" font-family="sans-serif" font-size="10px" font-style="italic" stroke="none" x="72" xml:space="preserve" y="14.1553">AbstractSimpleTimeFactory</text><path clip-path="url(#clipPath13)" d="M1 20.1553 L279 20.1553" fill="none"/><text clip-path="url(#clipPath13)" font-family="sans-serif" font-size="10px" stroke="none" x="5" xml:space="preserve" y="31.3105">+ createDuration(lengthInMinutes: int): Duration</text><text clip-path="url(#clipPath13)" font-family="sans-serif" font-size="10px" stroke="none" x="5" xml:space="preserve" y="43.4658">+ createDuration(hours:int, minutues: int) : Duration</text><text clip-path="url(#clipPath13)" font-family="sans-serif" font-size="10px" stroke="none" x="5" xml:space="preserve" y="55.6211">+ createTime(hours:int, minutes: int): Time</text></g><g fill="rgb(255,255,255)" fill-opacity="0" stroke="rgb(255,255,255)" stroke-opacity="0" transform="translate(990,340)"><path clip-path="url(#clipPath14)" d="M0.5 10.5 L64.5 10.5 L64.5 0.5 L99 0.5 L99 15.5 L80.5 15.5 L80.5 39 L0.5 39 Z" stroke="none"/><path clip-path="url(#clipPath14)" d="M0.5 10.5 L64.5 10.5 L64.5 0.5 L99 0.5 L99 15.5 L80.5 15.5 L80.5 39 L0.5 39 Z" fill="none"/><rect clip-path="url(#clipPath14)" height="15" stroke="none" width="34.5" x="64.5" y="0.5"/></g><g stroke-dasharray="8,5" stroke-linecap="butt" stroke-miterlimit="5" transform="translate(990,340)"><rect clip-path="url(#clipPath14)" fill="none" height="15" width="34.5" x="64.5" y="0.5"/><path clip-path="url(#clipPath14)" d="M64.5 10.5 L0.5 10.5 L0.5 39 L80.5 39 L80.5 15.5" fill="none" stroke-dasharray="none" stroke-linecap="square" stroke-miterlimit="10"/></g><g font-family="sans-serif" font-size="10px" transform="translate(990,340)"><text clip-path="url(#clipPath14)" stroke="none" x="70" xml:space="preserve" y="12">Time</text><text clip-path="url(#clipPath14)" font-style="italic" stroke="none" x="9" xml:space="preserve" y="29.1553">Comparable</text></g><g fill="rgb(255,255,255)" fill-opacity="0" stroke="rgb(255,255,255)" stroke-opacity="0" transform="translate(670,350)"><path clip-path="url(#clipPath15)" d="M0.5 10.5 L56.5 10.5 L56.5 0.5 L109 0.5 L109 15.5 L80.5 15.5 L80.5 39 L0.5 39 Z" stroke="none"/><path clip-path="url(#clipPath15)" d="M0.5 10.5 L56.5 10.5 L56.5 0.5 L109 0.5 L109 15.5 L80.5 15.5 L80.5 39 L0.5 39 Z" fill="none"/><rect clip-path="url(#clipPath15)" height="15" stroke="none" width="52.5" x="56.5" y="0.5"/></g><g stroke-dasharray="8,5" stroke-linecap="butt" stroke-miterlimit="5" transform="translate(670,350)"><rect clip-path="url(#clipPath15)" fill="none" height="15" width="52.5" x="56.5" y="0.5"/><path clip-path="url(#clipPath15)" d="M56.5 10.5 L0.5 10.5 L0.5 39 L80.5 39 L80.5 15.5" fill="none" stroke-dasharray="none" stroke-linecap="square" stroke-miterlimit="10"/></g><g font-family="sans-serif" font-size="10px" transform="translate(670,350)"><text clip-path="url(#clipPath15)" stroke="none" x="62" xml:space="preserve" y="12">Duration</text><text clip-path="url(#clipPath15)" font-style="italic" stroke="none" x="9" xml:space="preserve" y="29.1553">Comparable</text></g><g fill="rgb(255,255,255)" fill-opacity="0" stroke="rgb(255,255,255)" stroke-opacity="0" transform="translate(830,400)"><rect clip-path="url(#clipPath16)" height="138.5" stroke="none" width="248.5" x="0.5" y="0.5"/></g><g transform="translate(830,400)"><rect clip-path="url(#clipPath16)" fill="none" height="138.5" width="248.5" x="0.5" y="0.5"/><text clip-path="url(#clipPath16)" font-family="sans-serif" font-size="10px" font-style="italic" stroke="none" x="111" xml:space="preserve" y="14.1553">Time</text><path clip-path="url(#clipPath16)" d="M1 20.1553 L249 20.1553" fill="none"/><path clip-path="url(#clipPath16)" d="M1 37.3105 L249 37.3105" fill="none"/><text clip-path="url(#clipPath16)" font-family="sans-serif" font-size="10px" stroke="none" x="5" xml:space="preserve" y="48.4658">+ getHours():int</text><text clip-path="url(#clipPath16)" font-family="sans-serif" font-size="10px" stroke="none" x="5" xml:space="preserve" y="60.6211">+ getMinutes():int</text><text clip-path="url(#clipPath16)" font-family="sans-serif" font-size="10px" stroke="none" x="5" xml:space="preserve" y="72.7764">+ isBefore( otherTime:Time ):boolean</text><text clip-path="url(#clipPath16)" font-family="sans-serif" font-size="10px" stroke="none" x="5" xml:space="preserve" y="84.9316">+ isBeforeOrEqual( otherTime: Time ):boolean</text><text clip-path="url(#clipPath16)" font-family="sans-serif" font-size="10px" stroke="none" x="5" xml:space="preserve" y="97.0869">+ addTime( time: Time):Time</text><text clip-path="url(#clipPath16)" font-family="sans-serif" font-size="10px" stroke="none" x="5" xml:space="preserve" y="109.2422">+ addTime( lengthInMinutes: int ):Time</text><text clip-path="url(#clipPath16)" font-family="sans-serif" font-size="10px" stroke="none" x="5" xml:space="preserve" y="121.3975">+ asMinutes():int</text><text clip-path="url(#clipPath16)" font-family="sans-serif" font-size="10px" stroke="none" x="5" xml:space="preserve" y="133.5527">+ untill( otherTime:Time ):Duration</text></g><g fill="rgb(255,255,255)" fill-opacity="0" stroke="rgb(255,255,255)" stroke-opacity="0" transform="translate(570,410)"><rect clip-path="url(#clipPath17)" height="118.5" stroke="none" width="168.5" x="0.5" y="0.5"/></g><g transform="translate(570,410)"><rect clip-path="url(#clipPath17)" fill="none" height="118.5" width="168.5" x="0.5" y="0.5"/><text clip-path="url(#clipPath17)" font-family="sans-serif" font-size="10px" font-style="italic" stroke="none" x="62" xml:space="preserve" y="14.1553">Duration</text><path clip-path="url(#clipPath17)" d="M1 20.1553 L169 20.1553" fill="none"/><text clip-path="url(#clipPath17)" font-family="sans-serif" font-size="10px" stroke="none" x="5" xml:space="preserve" y="31.3105"> </text><path clip-path="url(#clipPath17)" d="M1 37.3105 L169 37.3105" fill="none"/><text clip-path="url(#clipPath17)" font-family="sans-serif" font-size="10px" stroke="none" x="5" xml:space="preserve" y="48.4658">+ getHours():int</text><text clip-path="url(#clipPath17)" font-family="sans-serif" font-size="10px" stroke="none" x="5" xml:space="preserve" y="60.6211">+ getMinutes():int</text><text clip-path="url(#clipPath17)" font-family="sans-serif" font-size="10px" stroke="none" x="5" xml:space="preserve" y="72.7764">+ asMinutes():int</text><text clip-path="url(#clipPath17)" font-family="sans-serif" font-size="10px" stroke="none" x="5" xml:space="preserve" y="84.9316">+ plus( d: Duration): Duration</text></g><g stroke-dasharray="8,5" stroke-linecap="butt" stroke-miterlimit="5" transform="translate(420,130)"><path clip-path="url(#clipPath18)" d="M10.5 129.5 L10.5 10.5" fill="none"/><path clip-path="url(#clipPath18)" d="M10.5 10.5 L250.5 10.5" fill="none"/><path clip-path="url(#clipPath18)" d="M17 118.7417 L10.5 130 L4 118.7417" fill="none" stroke-dasharray="none" stroke-linecap="square" stroke-miterlimit="10"/></g><g font-family="sans-serif" font-size="10px" transform="translate(420,130)"><text clip-path="url(#clipPath18)" stroke="none" x="14" xml:space="preserve" y="114">requires</text></g><g stroke-dasharray="8,5" stroke-linecap="butt" stroke-miterlimit="5" transform="translate(770,160)"><path clip-path="url(#clipPath19)" d="M311.5 270.5 L350.5 270.5" fill="none"/><path clip-path="url(#clipPath19)" d="M350.5 270.5 L350.5 10.5" fill="none"/><path clip-path="url(#clipPath19)" d="M350.5 10.5 L10.5 10.5" fill="none"/><path clip-path="url(#clipPath19)" d="M322.2583 277 L311 270.5 L322.2583 264" fill="none" stroke-dasharray="none" stroke-linecap="square" stroke-miterlimit="10"/></g><g stroke-dasharray="8,5" stroke-linecap="butt" stroke-miterlimit="5" transform="translate(730,170)"><path clip-path="url(#clipPath20)" d="M11.5 300.5 L80.5 300.5" fill="none"/><path clip-path="url(#clipPath20)" d="M80.5 300.5 L80.5 10.5" fill="none"/><path clip-path="url(#clipPath20)" d="M80.5 10.5 L50.5 10.5" fill="none"/><path clip-path="url(#clipPath20)" d="M22.2583 307 L11 300.5 L22.2583 294" fill="none" stroke-dasharray="none" stroke-linecap="square" stroke-miterlimit="10"/></g><g stroke-dasharray="8,5" stroke-linecap="butt" stroke-miterlimit="5" transform="translate(520,160)"><path clip-path="url(#clipPath21)" d="M11.5 300.5 L30.5 300.5" fill="none"/><path clip-path="url(#clipPath21)" d="M30.5 300.5 L30.5 10.5" fill="none"/><path clip-path="url(#clipPath21)" d="M30.5 10.5 L160.5 10.5" fill="none"/><path clip-path="url(#clipPath21)" d="M22.2583 307 L11 300.5 L22.2583 294" fill="none" stroke-dasharray="none" stroke-linecap="square" stroke-miterlimit="10"/></g><g stroke-dasharray="8,5" stroke-linecap="butt" stroke-miterlimit="5" transform="translate(510,720)"><path clip-path="url(#clipPath22)" d="M11.4923 10.624 L170.5 30.5" fill="none"/><path clip-path="url(#clipPath22)" d="M21.3613 18.4082 L10.9961 10.562 L22.9738 5.5086" fill="none" stroke-dasharray="none" stroke-linecap="square" stroke-miterlimit="10"/></g><g stroke-dasharray="8,5" stroke-linecap="butt" stroke-miterlimit="5" transform="translate(810,710)"><path clip-path="url(#clipPath23)" d="M109.5715 10.8714 L10.5 50.5" fill="none"/><path clip-path="url(#clipPath23)" d="M97.1686 8.8318 L110.0358 10.6857 L101.9967 20.902" fill="none" stroke-dasharray="none" stroke-linecap="square" stroke-miterlimit="10"/></g><g stroke-dasharray="8,5" stroke-linecap="butt" stroke-miterlimit="5" transform="translate(720,700)"><path clip-path="url(#clipPath24)" d="M10.5 11.5 L10.5 40.5" fill="none"/><path clip-path="url(#clipPath24)" d="M4 22.2583 L10.5 11 L17 22.2583" fill="none" stroke-dasharray="none" stroke-linecap="square" stroke-miterlimit="10"/></g><g stroke-dasharray="8,5" stroke-linecap="butt" stroke-miterlimit="5" transform="translate(510,720)"><path clip-path="url(#clipPath25)" d="M410.0528 11.3944 L370.5 90.5" fill="none"/><path clip-path="url(#clipPath25)" d="M370.5 90.5 L150.5 90.5" fill="none"/><path clip-path="url(#clipPath25)" d="M150.5 90.5 L10.5 20.5" fill="none"/><path clip-path="url(#clipPath25)" d="M399.4277 18.1101 L410.2764 10.9472 L411.0553 23.9239" fill="none" stroke-dasharray="none" stroke-linecap="square" stroke-miterlimit="10"/></g><g font-family="sans-serif" font-size="10px" transform="translate(510,720)"><text clip-path="url(#clipPath25)" stroke="none" x="236.6602" xml:space="preserve" y="86">creates ►</text></g><g stroke-dasharray="8,5" stroke-linecap="butt" stroke-miterlimit="5" transform="translate(510,690)"><path clip-path="url(#clipPath26)" d="M159.5022 10.5665 L10.5 20.5" fill="none"/><path clip-path="url(#clipPath26)" d="M148.3353 4.7965 L160.0011 10.5333 L149.2001 17.7678" fill="none" stroke-dasharray="none" stroke-linecap="square" stroke-miterlimit="10"/></g><g font-family="sans-serif" font-size="10px" transform="translate(510,690)"><text clip-path="url(#clipPath26)" stroke="none" x="61.6602" xml:space="preserve" y="11">creates ►</text></g><g stroke-dasharray="8,5" stroke-linecap="butt" stroke-miterlimit="5" transform="translate(960,530)"><path clip-path="url(#clipPath27)" d="M10.5 11.5 L10.5 180.5" fill="none"/><path clip-path="url(#clipPath27)" d="M4 22.2583 L10.5 11 L17 22.2583 Z" fill="white" stroke="none"/><path clip-path="url(#clipPath27)" d="M4 22.2583 L10.5 11 L17 22.2583 Z" fill="none" stroke-dasharray="none" stroke-linecap="square" stroke-miterlimit="10"/></g><g stroke-dasharray="8,5" stroke-linecap="butt" stroke-miterlimit="5" transform="translate(710,520)"><path clip-path="url(#clipPath28)" d="M10.5 11.5 L10.5 160.5" fill="none"/><path clip-path="url(#clipPath28)" d="M4 22.2583 L10.5 11 L17 22.2583 Z" fill="white" stroke="none"/><path clip-path="url(#clipPath28)" d="M4 22.2583 L10.5 11 L17 22.2583 Z" fill="none" stroke-dasharray="none" stroke-linecap="square" stroke-miterlimit="10"/></g><g stroke-dasharray="8,5" stroke-linecap="butt" stroke-miterlimit="5" transform="translate(990,370)"><path clip-path="url(#clipPath29)" d="M10.5 11.5 L10.5 30.5" fill="none"/><path clip-path="url(#clipPath29)" d="M4 22.2583 L10.5 11 L17 22.2583 Z" fill="white" stroke="none"/><path clip-path="url(#clipPath29)" d="M4 22.2583 L10.5 11 L17 22.2583 Z" fill="none" stroke-dasharray="none" stroke-linecap="square" stroke-miterlimit="10"/></g><g stroke-dasharray="8,5" stroke-linecap="butt" stroke-miterlimit="5" transform="translate(710,380)"><path clip-path="url(#clipPath29)" d="M10.5 11.5 L10.5 30.5" fill="none"/><path clip-path="url(#clipPath29)" d="M4 22.2583 L10.5 11 L17 22.2583 Z" fill="white" stroke="none"/><path clip-path="url(#clipPath29)" d="M4 22.2583 L10.5 11 L17 22.2583 Z" fill="none" stroke-dasharray="none" stroke-linecap="square" stroke-miterlimit="10"/></g><g stroke-dasharray="8,5" stroke-linecap="butt" stroke-miterlimit="5" transform="translate(420,520)"><path clip-path="url(#clipPath28)" d="M10.5 11.5 L10.5 160.5" fill="none"/><path clip-path="url(#clipPath28)" d="M4 22.2583 L10.5 11 L17 22.2583 Z" fill="white" stroke="none"/><path clip-path="url(#clipPath28)" d="M4 22.2583 L10.5 11 L17 22.2583 Z" fill="none" stroke-dasharray="none" stroke-linecap="square" stroke-miterlimit="10"/></g></g><style>@media (prefers-color-scheme: dark) {
    svg {
        filter: invert(100%)
        }
    }</style></svg>